<?xml version="1.0" standalone="no"?><!DOCTYPE svg PUBLIC "-//W3C//DTD SVG 1.1//EN" "http://www.w3.org/Graphics/SVG/1.1/DTD/svg11.dtd"><svg t="1678536261382" class="icon" viewBox="0 0 1024 1024" version="1.1" xmlns="http://www.w3.org/2000/svg" p-id="17061" xmlns:xlink="http://www.w3.org/1999/xlink" width="200" height="200"><path d="M59.8528 744.6528C-31.8976 584.2944 20.992 358.4 192.8192 213.9648c159.6928-133.9904 371.0976-154.4704 514.2016-61.952a116.7872 116.7872 0 0 1 9.7792-9.6256c35.328-29.5424 84.224-29.44 109.1584 0.4096s16.64 77.9264-18.5344 107.52l-1.9456 1.536c100.9664 160.8704 49.7664 394.24-126.1568 541.952-163.5328 137.3184-381.5936 155.4944-524.6976 54.8864-1.024 1.024-2.1504 1.8944-3.1744 2.816-35.328 29.5424-84.224 29.44-109.1584-0.3584s-16.7424-76.8 17.5104-106.5984z m0 0" fill="#FEE126" p-id="17062"></path><path d="M70.7584 888.064c20.48-16.2304 55.552-28.672 100.1984-28.5184 93.184 0 95.744 168.96 566.6304-77.824 202.5984-106.1888 84.5824-467.8144 86.7328-526.9504 1.024-29.952 25.6-177.8688-20.0704-55.296-39.424 105.728-118.3744 340.0192-221.9008 436.992-246.0672 230.4-621.568 120.4224-511.488 251.5968z m0 0" fill="#FCB447" p-id="17063"></path><path d="M367.2064 928c-77.824 0-151.3984-20.736-211.6096-60.0576a105.7792 105.7792 0 0 1-62.2592 21.1456h-0.3072A79.9232 79.9232 0 0 1 30.72 861.0816c-27.5456-32.8192-22.4256-84.1216 10.24-119.3472-42.0352-79.5136-52.0704-175.6672-28.3648-272.1792C37.376 368.64 97.8944 273.5616 182.9376 202.1888c157.7472-132.352 370.3808-160.1024 521.8816-69.632l2.048-1.792a106.8544 106.8544 0 0 1 68.1984-25.6h0.3072A79.9744 79.9744 0 0 1 837.7856 133.12c28.2624 33.792 22.1696 86.528-12.5952 121.9584 97.28 168.6016 40.0896 402.9952-135.9872 550.8096-80.7424 67.7888-179.6096 110.4384-278.3744 120.1664-14.6432 1.2288-29.184 1.9456-43.6224 1.9456z m-214.272-99.2256l10.5984 7.424C230.4 883.2512 317.44 904.192 407.8592 895.2832c92.672-9.1136 185.6-49.3056 261.632-113.152 168.2944-141.2608 221.184-365.6704 122.88-522.24l-7.2704-11.6224 12.6464-10.24c28.3136-23.9104 35.84-62.5152 16.3328-85.76a49.7664 49.7664 0 0 0-38.9632-16.9472 75.9808 75.9808 0 0 0-48.3328 18.4832 100.096 100.096 0 0 0-8.448 8.2432l-8.7552 9.5232-10.8544-7.0144C558.08 73.8304 353.9456 98.8672 202.7008 225.6896 122.624 292.9152 65.6896 382.1568 42.4448 476.928c-22.8352 93.0816-11.9296 185.4464 30.72 260.096l6.2976 11.008-9.5744 8.2944c-27.904 24.064-34.9696 62.208-15.7696 85.0944a49.7664 49.7664 0 0 0 38.9632 16.9984 76.4416 76.4416 0 0 0 48.5888-18.7392l0.9216-0.8192c0.4096-0.3584 0.8704-0.6656 1.2288-1.0752z" fill="#010101" p-id="17064"></path><path d="M496.2304 224.3072Q388.7616 211.0464 312.32 109.4144a3.0208 3.0208 0 0 1 0.512-4.2496Q411.648 24.9344 519.0144 37.9904t183.7568 114.944a3.0208 3.0208 0 0 1-0.512 4.1984Q603.8016 237.568 496.2304 224.3072z m0 0" fill="#8CC63F" p-id="17065"></path><path d="M526.2848 241.5104a261.12 261.12 0 0 1-31.8976-1.9968C418.7136 230.4 353.28 189.44 300.288 118.7328a18.176 18.176 0 0 1-3.6864-13.1584 18.5344 18.5344 0 0 1 6.8096-12.3904C372.1216 37.2736 445.44 13.568 520.9088 22.7328S661.8624 72.704 715.008 143.36a18.176 18.176 0 0 1 3.6864 13.2096A18.5344 18.5344 0 0 1 711.68 168.96c-58.7264 48.2816-121.0368 72.5504-185.3952 72.5504z m-28.16-32.4608c63.6928 7.8848 125.8496-11.1104 185.0368-56.32-46.4896-58.1632-102.4-91.5456-166.0416-99.4304s-125.1328 10.6496-185.0368 56.32c46.4896 58.112 102.4 91.5456 165.9904 99.4304z m194.56-63.8464z m-369.8688-28.2112z" fill="#010101" p-id="17066"></path><path d="M629.76 170.2912a120.5248 120.5248 0 0 1-15.36-0.9216c-19.2-2.1504-48.9984-9.8304-91.392-23.296a14.3872 14.3872 0 0 1 8.704-27.392c39.936 12.6464 68.864 20.224 85.8624 22.1184 19.0464 2.2016 42.8544-1.024 70.5024-9.5744A14.3872 14.3872 0 0 1 696.32 158.72a228.4032 228.4032 0 0 1-66.56 11.52z m0 0" fill="#010101" p-id="17067"></path><path d="M405.4016 660.1728A301.6192 301.6192 0 1 0 707.0208 358.4a301.6192 301.6192 0 0 0-301.6192 301.6192z m0 0" fill="#FFC646" p-id="17068"></path><path d="M707.0208 977.152A316.9792 316.9792 0 1 1 1024 660.1728a317.44 317.44 0 0 1-316.9792 316.9792z m0-603.2384A286.2592 286.2592 0 1 0 993.28 660.1728 286.72 286.72 0 0 0 707.0208 373.76z" fill="#010101" p-id="17069"></path><path d="M476.16 661.6064a230.9632 230.9632 0 1 0 230.8608-231.0144A230.9632 230.9632 0 0 0 476.16 661.6064z m0 0" fill="#FEE126" p-id="17070"></path><path d="M707.0208 907.008A245.4528 245.4528 0 1 1 952.32 661.6064a245.76 245.76 0 0 1-245.4528 245.4528z m0-462.08a216.6272 216.6272 0 1 0 216.6272 216.6784 216.8832 216.8832 0 0 0-216.6272-216.6784z m0 0" fill="#FFFFFF" p-id="17071"></path><path d="M479.1296 648.0384h446.464v28.7744h-446.464z" fill="#FFFFFF" p-id="17072"></path><path d="M539.4432 811.3664L855.04 495.6672l20.48 20.48-315.6992 315.6992z m0 0" fill="#FFFFFF" p-id="17073"></path><path d="M539.4432 515.9936l20.48-20.48L875.52 811.3664l-20.48 20.48z m0 0" fill="#FFFFFF" p-id="17074"></path><path d="M691.9168 433.664h28.7744v446.464h-28.7744z" fill="#FFFFFF" p-id="17075"></path></svg>
